<svg width="166" height="36" viewBox="0 0 166 36" fill="none" xmlns="http://www.w3.org/2000/svg">
<circle cx="18" cy="18" r="18" fill="#FDFDFD"/>
<rect x="6.18726" y="19.4858" width="3.0203" height="16.0758" rx="1.51015" transform="rotate(-90 6.18726 19.4858)" fill="url(#paint0_linear_0_140)"/>
<rect x="6.18726" y="9.79169" width="3.0203" height="16.2706" rx="1.51015" fill="#FBA808"/>
<rect x="17.7844" y="9.35315" width="3.0203" height="17.2449" rx="1.51015" transform="rotate(20 17.7844 9.35315)" fill="#34343E"/>
<rect x="6.18726" y="12.8118" width="3.0203" height="9.98647" rx="1.51015" transform="rotate(-90 6.18726 12.8118)" fill="#FBA808"/>
<rect x="17.0989" y="10.386" width="3.0203" height="17.2449" rx="1.51015" transform="rotate(-20 17.0989 10.386)" fill="#34343E"/>
<rect x="27.917" y="9.35315" width="3.0203" height="17.2449" rx="1.51015" transform="rotate(20 27.917 9.35315)" fill="#FBA808"/>
<path d="M55.624 26.768C55.448 26.768 55.304 26.712 55.192 26.6C55.096 26.488 55.048 26.352 55.048 26.192V24.416C52.664 24.416 50.824 23.896 49.528 22.856C48.232 21.8 47.496 20.224 47.32 18.128C47.304 17.984 47.296 17.808 47.296 17.6C47.296 17.376 47.296 17.16 47.296 16.952C47.312 16.728 47.32 16.544 47.32 16.4C47.4 15.008 47.76 13.848 48.4 12.92C49.04 11.976 49.92 11.272 51.04 10.808C52.176 10.328 53.512 10.088 55.048 10.088V8.576C55.048 8.4 55.096 8.264 55.192 8.168C55.304 8.056 55.448 8 55.624 8H57.784C57.96 8 58.104 8.056 58.216 8.168C58.328 8.264 58.384 8.4 58.384 8.576V10.088C59.904 10.088 61.224 10.328 62.344 10.808C63.48 11.272 64.368 11.976 65.008 12.92C65.664 13.848 66.024 15.008 66.088 16.4C66.12 16.736 66.136 17.024 66.136 17.264C66.136 17.504 66.12 17.792 66.088 18.128C65.928 20.224 65.2 21.8 63.904 22.856C62.608 23.896 60.768 24.416 58.384 24.416V26.192C58.384 26.352 58.328 26.488 58.216 26.6C58.104 26.712 57.96 26.768 57.784 26.768H55.624ZM55.048 21.656V12.848C53.752 12.848 52.736 13.136 52 13.712C51.264 14.288 50.84 15.216 50.728 16.496C50.728 16.752 50.728 17 50.728 17.24C50.728 17.48 50.728 17.736 50.728 18.008C50.808 19.272 51.216 20.2 51.952 20.792C52.704 21.368 53.736 21.656 55.048 21.656ZM58.36 21.656C59.672 21.656 60.704 21.368 61.456 20.792C62.208 20.2 62.616 19.272 62.68 18.008C62.696 17.864 62.704 17.704 62.704 17.528C62.704 17.336 62.704 17.152 62.704 16.976C62.704 16.784 62.696 16.624 62.68 16.496C62.552 15.216 62.12 14.288 61.384 13.712C60.664 13.136 59.656 12.848 58.36 12.848V21.656ZM68.2384 26C68.1104 26 67.9904 25.952 67.8784 25.856C67.7824 25.76 67.7344 25.64 67.7344 25.496C67.7344 25.432 67.7504 25.36 67.7824 25.28L73.5664 9.8C73.6144 9.64 73.7024 9.504 73.8304 9.392C73.9744 9.264 74.1664 9.2 74.4064 9.2H77.0224C77.2624 9.2 77.4464 9.264 77.5744 9.392C77.7024 9.504 77.7984 9.64 77.8624 9.8L83.6464 25.28C83.6624 25.36 83.6704 25.432 83.6704 25.496C83.6704 25.64 83.6224 25.76 83.5264 25.856C83.4304 25.952 83.3184 26 83.1904 26H81.1024C80.8784 26 80.7104 25.952 80.5984 25.856C80.5024 25.744 80.4384 25.64 80.4064 25.544L79.2784 22.616H72.1504L71.0224 25.544C70.9904 25.64 70.9184 25.744 70.8064 25.856C70.7104 25.952 70.5504 26 70.3264 26H68.2384ZM72.9904 19.856H78.4384L75.7024 12.44L72.9904 19.856ZM86.4871 26C86.3271 26 86.1911 25.944 86.0791 25.832C85.9671 25.72 85.9111 25.584 85.9111 25.424V9.8C85.9111 9.624 85.9671 9.48 86.0791 9.368C86.1911 9.256 86.3271 9.2 86.4871 9.2H93.4471C94.7431 9.2 95.7991 9.4 96.6151 9.8C97.4311 10.184 98.0311 10.72 98.4151 11.408C98.8151 12.096 99.0151 12.896 99.0151 13.808C99.0151 14.416 98.9031 14.952 98.6791 15.416C98.4711 15.864 98.2071 16.232 97.8871 16.52C97.5831 16.808 97.2791 17.032 96.9751 17.192C97.5991 17.48 98.1511 17.96 98.6311 18.632C99.1111 19.304 99.3511 20.104 99.3511 21.032C99.3511 21.992 99.1351 22.848 98.7031 23.6C98.2711 24.352 97.6311 24.944 96.7831 25.376C95.9351 25.792 94.8871 26 93.6391 26H86.4871ZM89.2471 23.456H93.2551C94.1191 23.456 94.7751 23.224 95.2231 22.76C95.6711 22.28 95.8951 21.704 95.8951 21.032C95.8951 20.328 95.6631 19.744 95.1991 19.28C94.7511 18.816 94.1031 18.584 93.2551 18.584H89.2471V23.456ZM89.2471 16.088H93.0151C93.8631 16.088 94.4951 15.888 94.9111 15.488C95.3431 15.072 95.5591 14.536 95.5591 13.88C95.5591 13.208 95.3431 12.688 94.9111 12.32C94.4951 11.936 93.8631 11.744 93.0151 11.744H89.2471V16.088ZM108.82 26.24C107.396 26.24 106.172 26.008 105.148 25.544C104.124 25.064 103.324 24.336 102.748 23.36C102.172 22.368 101.86 21.136 101.812 19.664C101.796 18.976 101.788 18.296 101.788 17.624C101.788 16.952 101.796 16.264 101.812 15.56C101.86 14.104 102.18 12.888 102.772 11.912C103.364 10.936 104.172 10.2 105.196 9.704C106.236 9.208 107.444 8.96 108.82 8.96C110.196 8.96 111.404 9.208 112.444 9.704C113.484 10.2 114.3 10.936 114.892 11.912C115.484 12.888 115.804 14.104 115.852 15.56C115.884 16.264 115.9 16.952 115.9 17.624C115.9 18.296 115.884 18.976 115.852 19.664C115.804 21.136 115.492 22.368 114.916 23.36C114.34 24.336 113.532 25.064 112.492 25.544C111.468 26.008 110.244 26.24 108.82 26.24ZM108.82 23.48C109.86 23.48 110.708 23.176 111.364 22.568C112.02 21.944 112.372 20.936 112.42 19.544C112.452 18.84 112.468 18.192 112.468 17.6C112.468 16.992 112.452 16.344 112.42 15.656C112.388 14.728 112.212 13.976 111.892 13.4C111.588 12.808 111.172 12.384 110.644 12.128C110.116 11.856 109.508 11.72 108.82 11.72C108.148 11.72 107.548 11.856 107.02 12.128C106.492 12.384 106.068 12.808 105.748 13.4C105.444 13.976 105.276 14.728 105.244 15.656C105.228 16.344 105.22 16.992 105.22 17.6C105.22 18.192 105.228 18.84 105.244 19.544C105.292 20.936 105.644 21.944 106.3 22.568C106.956 23.176 107.796 23.48 108.82 23.48ZM119.628 26C119.468 26 119.332 25.944 119.22 25.832C119.108 25.72 119.052 25.584 119.052 25.424V9.8C119.052 9.624 119.108 9.48 119.22 9.368C119.332 9.256 119.468 9.2 119.628 9.2H126.06C127.308 9.2 128.396 9.4 129.324 9.8C130.252 10.184 130.972 10.776 131.484 11.576C131.996 12.36 132.252 13.344 132.252 14.528C132.252 15.728 131.996 16.72 131.484 17.504C130.972 18.272 130.252 18.848 129.324 19.232C128.396 19.616 127.308 19.808 126.06 19.808H122.484V25.424C122.484 25.584 122.428 25.72 122.316 25.832C122.22 25.944 122.084 26 121.908 26H119.628ZM122.436 17.144H125.94C126.868 17.144 127.58 16.928 128.076 16.496C128.572 16.048 128.82 15.392 128.82 14.528C128.82 13.728 128.588 13.088 128.124 12.608C127.66 12.112 126.932 11.864 125.94 11.864H122.436V17.144ZM135.448 26C135.288 26 135.152 25.944 135.04 25.832C134.928 25.72 134.872 25.576 134.872 25.4V9.8C134.872 9.624 134.928 9.48 135.04 9.368C135.152 9.256 135.296 9.2 135.472 9.2H137.632C137.808 9.2 137.944 9.256 138.04 9.368C138.152 9.48 138.208 9.624 138.208 9.8V20.816L146.104 9.584C146.168 9.504 146.256 9.424 146.368 9.344C146.48 9.248 146.624 9.2 146.8 9.2H148.792C148.952 9.2 149.088 9.256 149.2 9.368C149.312 9.48 149.368 9.624 149.368 9.8V25.424C149.368 25.584 149.312 25.72 149.2 25.832C149.088 25.944 148.952 26 148.792 26H146.632C146.456 26 146.312 25.944 146.2 25.832C146.088 25.72 146.032 25.584 146.032 25.424V14.624L138.16 25.616C138.112 25.68 138.032 25.76 137.92 25.856C137.808 25.952 137.656 26 137.464 26H135.448ZM157.378 26C157.218 26 157.082 25.944 156.97 25.832C156.858 25.72 156.802 25.584 156.802 25.424V12.152H152.362C152.202 12.152 152.066 12.096 151.954 11.984C151.842 11.872 151.786 11.736 151.786 11.576V9.8C151.786 9.624 151.842 9.48 151.954 9.368C152.066 9.256 152.202 9.2 152.362 9.2H164.602C164.778 9.2 164.922 9.256 165.034 9.368C165.146 9.48 165.202 9.624 165.202 9.8V11.576C165.202 11.736 165.146 11.872 165.034 11.984C164.922 12.096 164.778 12.152 164.602 12.152H160.186V25.424C160.186 25.584 160.13 25.72 160.018 25.832C159.906 25.944 159.762 26 159.586 26H157.378Z" fill="#34343E"/>
<defs>
<linearGradient id="paint0_linear_0_140" x1="7.6974" y1="19.4858" x2="7.6974" y2="35.5616" gradientUnits="userSpaceOnUse">
<stop stop-color="#FBA808"/>
<stop offset="0.56264" stop-color="#34343E"/>
<stop offset="1" stop-color="#34343E"/>
</linearGradient>
</defs>
</svg>
