<svg width="166" height="36" fill="none" xmlns="http://www.w3.org/2000/svg"><circle cx="18" cy="18" r="18" fill="#FDFDFD"/><rect x="6.187" y="19.486" width="3.02" height="16.076" rx="1.51" transform="rotate(-90 6.187 19.486)" fill="url('#paint0_linear_0_129')"/><rect x="6.187" y="9.792" width="3.02" height="16.271" rx="1.51" fill="#FBA808"/><rect x="17.784" y="9.353" width="3.02" height="17.245" rx="1.51" transform="rotate(20 17.784 9.353)" fill="#34343E"/><rect x="6.187" y="12.812" width="3.02" height="9.986" rx="1.51" transform="rotate(-90 6.187 12.812)" fill="#FBA808"/><rect x="17.099" y="10.386" width="3.02" height="17.245" rx="1.51" transform="rotate(-20 17.099 10.386)" fill="#34343E"/><rect x="27.917" y="9.353" width="3.02" height="17.245" rx="1.51" transform="rotate(20 27.917 9.353)" fill="#FBA808"/><path d="M55.624 26.768a.585.585 0 0 1-.432-.168.606.606 0 0 1-.144-.408v-1.776c-2.384 0-4.224-.52-5.52-1.56-1.296-1.056-2.032-2.632-2.208-4.728a4.894 4.894 0 0 1-.024-.528v-.648a8.04 8.04 0 0 0 .024-.552c.08-1.392.44-2.552 1.08-3.48.64-.944 1.52-1.648 2.64-2.112 1.136-.48 2.472-.72 4.008-.72V8.576c0-.176.048-.312.144-.408A.585.585 0 0 1 55.624 8h2.16c.176 0 .32.056.432.168a.508.508 0 0 1 .168.408v1.512c1.52 0 2.84.24 3.96.72 1.136.464 2.024 1.168 2.664 2.112.656.928 1.016 2.088 1.08 3.48.032.336.048.624.048.864s-.016.528-.048.864c-.16 2.096-.888 3.672-2.184 4.728-1.296 1.04-3.136 1.56-5.52 1.56v1.776c0 .16-.056.296-.168.408a.585.585 0 0 1-.432.168h-2.16Zm-.576-5.112v-8.808c-1.296 0-2.312.288-3.048.864-.736.576-1.16 1.504-1.272 2.784v1.512c.08 1.264.488 2.192 1.224 2.784.752.576 1.784.864 3.096.864Zm3.312 0c1.312 0 2.344-.288 3.096-.864.752-.592 1.16-1.52 1.224-2.784.016-.144.024-.304.024-.48v-.552a3.98 3.98 0 0 0-.024-.48c-.128-1.28-.56-2.208-1.296-2.784-.72-.576-1.728-.864-3.024-.864v8.808ZM68.238 26a.544.544 0 0 1-.36-.144.488.488 0 0 1-.144-.36.59.59 0 0 1 .048-.216L73.566 9.8a.862.862 0 0 1 .264-.408c.144-.128.336-.192.576-.192h2.616c.24 0 .424.064.552.192.128.112.224.248.288.408l5.784 15.48c.016.08.024.152.024.216a.488.488 0 0 1-.144.36.46.46 0 0 1-.336.144h-2.088c-.224 0-.392-.048-.504-.144a.97.97 0 0 1-.192-.312l-1.128-2.928H72.15l-1.128 2.928a.847.847 0 0 1-.216.312c-.096.096-.256.144-.48.144h-2.088Zm4.752-6.144h5.448l-2.736-7.416-2.712 7.416ZM86.487 26a.555.555 0 0 1-.408-.168.555.555 0 0 1-.168-.408V9.8c0-.176.056-.32.168-.432a.555.555 0 0 1 .408-.168h6.96c1.296 0 2.352.2 3.168.6.816.384 1.416.92 1.8 1.608.4.688.6 1.488.6 2.4 0 .608-.112 1.144-.336 1.608a3.37 3.37 0 0 1-.792 1.104 4.16 4.16 0 0 1-.912.672c.624.288 1.176.768 1.656 1.44.48.672.72 1.472.72 2.4 0 .96-.216 1.816-.648 2.568-.432.752-1.072 1.344-1.92 1.776-.848.416-1.896.624-3.144.624h-7.152Zm2.76-2.544h4.008c.864 0 1.52-.232 1.968-.696.448-.48.672-1.056.672-1.728 0-.704-.232-1.288-.696-1.752-.448-.464-1.096-.696-1.944-.696h-4.008v4.872Zm0-7.368h3.768c.848 0 1.48-.2 1.896-.6.432-.416.648-.952.648-1.608 0-.672-.216-1.192-.648-1.56-.416-.384-1.048-.576-1.896-.576h-3.768v4.344ZM108.82 26.24c-1.424 0-2.648-.232-3.672-.696a5.377 5.377 0 0 1-2.4-2.184c-.576-.992-.888-2.224-.936-3.696a87.75 87.75 0 0 1 0-4.104c.048-1.456.368-2.672.96-3.648a5.67 5.67 0 0 1 2.424-2.208c1.04-.496 2.248-.744 3.624-.744s2.584.248 3.624.744a5.641 5.641 0 0 1 2.448 2.208c.592.976.912 2.192.96 3.648a43.907 43.907 0 0 1 0 4.104c-.048 1.472-.36 2.704-.936 3.696a5.353 5.353 0 0 1-2.424 2.184c-1.024.464-2.248.696-3.672.696Zm0-2.76c1.04 0 1.888-.304 2.544-.912.656-.624 1.008-1.632 1.056-3.024.032-.704.048-1.352.048-1.944 0-.608-.016-1.256-.048-1.944-.032-.928-.208-1.68-.528-2.256-.304-.592-.72-1.016-1.248-1.272-.528-.272-1.136-.408-1.824-.408-.672 0-1.272.136-1.8.408-.528.256-.952.68-1.272 1.272-.304.576-.472 1.328-.504 2.256a83.853 83.853 0 0 0-.024 1.944c0 .592.008 1.24.024 1.944.048 1.392.4 2.4 1.056 3.024.656.608 1.496.912 2.52.912ZM119.628 26a.555.555 0 0 1-.408-.168.555.555 0 0 1-.168-.408V9.8c0-.176.056-.32.168-.432a.555.555 0 0 1 .408-.168h6.432c1.248 0 2.336.2 3.264.6.928.384 1.648.976 2.16 1.776.512.784.768 1.768.768 2.952 0 1.2-.256 2.192-.768 2.976-.512.768-1.232 1.344-2.16 1.728-.928.384-2.016.576-3.264.576h-3.576v5.616c0 .16-.056.296-.168.408a.508.508 0 0 1-.408.168h-2.28Zm2.808-8.856h3.504c.928 0 1.64-.216 2.136-.648.496-.448.744-1.104.744-1.968 0-.8-.232-1.44-.696-1.92-.464-.496-1.192-.744-2.184-.744h-3.504v5.28ZM135.448 26a.555.555 0 0 1-.408-.168.585.585 0 0 1-.168-.432V9.8c0-.176.056-.32.168-.432a.585.585 0 0 1 .432-.168h2.16c.176 0 .312.056.408.168a.585.585 0 0 1 .168.432v11.016l7.896-11.232c.064-.08.152-.16.264-.24a.64.64 0 0 1 .432-.144h1.992c.16 0 .296.056.408.168a.585.585 0 0 1 .168.432v15.624c0 .16-.056.296-.168.408a.555.555 0 0 1-.408.168h-2.16a.585.585 0 0 1-.432-.168.555.555 0 0 1-.168-.408v-10.8l-7.872 10.992a1.663 1.663 0 0 1-.24.24c-.112.096-.264.144-.456.144h-2.016Zm21.93 0a.555.555 0 0 1-.408-.168.555.555 0 0 1-.168-.408V12.152h-4.44a.555.555 0 0 1-.408-.168.555.555 0 0 1-.168-.408V9.8c0-.176.056-.32.168-.432a.555.555 0 0 1 .408-.168h12.24c.176 0 .32.056.432.168a.585.585 0 0 1 .168.432v1.776c0 .16-.056.296-.168.408a.585.585 0 0 1-.432.168h-4.416v13.272c0 .16-.056.296-.168.408a.585.585 0 0 1-.432.168h-2.208Z" fill="#FDFDFD"/><defs><linearGradient id="paint0_linear_0_129" x1="7.697" y1="19.486" x2="7.697" y2="35.562" gradientUnits="userSpaceOnUse"><stop stop-color="#FBA808"/><stop offset=".563" stop-color="#34343E"/><stop offset="1" stop-color="#34343E"/></linearGradient></defs></svg>